<?xml version="1.0" encoding="UTF-8" standalone="no"?>
<!DOCTYPE svg PUBLIC "-//W3C//DTD SVG 1.1//EN"
 "http://www.w3.org/Graphics/SVG/1.1/DTD/svg11.dtd">
<!-- Generated by graphviz version 2.40.1 (20161225.0304)
 -->
<!-- Title: dependencies Pages: 1 -->
<svg width="570pt" height="284pt"
 viewBox="0.00 0.00 570.00 284.00" xmlns="http://www.w3.org/2000/svg" xmlns:xlink="http://www.w3.org/1999/xlink">
<g id="graph0" class="graph" transform="scale(1 1) rotate(0) translate(4 280)">
<title>dependencies</title>
<polygon fill="#ffffff" stroke="transparent" points="-4,4 -4,-280 566,-280 566,4 -4,4"/>
<text text-anchor="start" x="260.0091" y="-42.4" font-family="sans-serif" font-weight="bold" font-size="14.00" fill="#000000">Legend</text>
<polygon fill="#ffffb3" stroke="transparent" points="47,-10 47,-30 67,-30 67,-10 47,-10"/>
<text text-anchor="start" x="70.629" y="-15.4" font-family="sans-serif" font-size="14.00" fill="#000000"> &#160;Declarations</text>
<polygon fill="#8dd3c7" stroke="transparent" points="160,-10 160,-30 180,-30 180,-10 160,-10"/>
<text text-anchor="start" x="183.7251" y="-15.4" font-family="sans-serif" font-size="14.00" fill="#000000"> &#160;Module</text>
<polygon fill="#80b1d3" stroke="transparent" points="246,-10 246,-30 266,-30 266,-10 246,-10"/>
<text text-anchor="start" x="269.7812" y="-15.4" font-family="sans-serif" font-size="14.00" fill="#000000"> &#160;Bootstrap</text>
<polygon fill="#fdb462" stroke="transparent" points="343,-10 343,-30 363,-30 363,-10 343,-10"/>
<text text-anchor="start" x="366.6732" y="-15.4" font-family="sans-serif" font-size="14.00" fill="#000000"> &#160;Providers</text>
<polygon fill="#fb8072" stroke="transparent" points="439,-10 439,-30 459,-30 459,-10 439,-10"/>
<text text-anchor="start" x="462.7258" y="-15.4" font-family="sans-serif" font-size="14.00" fill="#000000"> &#160;Exports</text>
<g id="clust1" class="cluster">
<title>cluster_CandidateModule</title>
<polygon fill="none" stroke="#000000" stroke-dasharray="1,5" points="8,-70 8,-268 554,-268 554,-70 8,-70"/>
</g>
<g id="clust2" class="cluster">
<title>cluster_CandidateModule_declarations</title>
<polygon fill="none" stroke="#000000" points="168,-78 168,-130 546,-130 546,-78 168,-78"/>
</g>
<g id="clust5" class="cluster">
<title>cluster_CandidateModule_imports</title>
<polygon fill="none" stroke="#000000" points="16,-78 16,-130 160,-130 160,-78 16,-78"/>
</g>
<g id="clust6" class="cluster">
<title>cluster_CandidateModule_exports</title>
<polygon fill="none" stroke="#000000" points="89,-208 89,-260 473,-260 473,-208 89,-208"/>
</g>
<!-- CandidateDetailsComponent -->
<g id="node1" class="node">
<title>CandidateDetailsComponent</title>
<polygon fill="#ffffb3" stroke="#000000" points="537.7464,-122 360.2536,-122 360.2536,-86 537.7464,-86 537.7464,-122"/>
<text text-anchor="middle" x="449" y="-99.8" font-family="Times,serif" font-size="14.00" fill="#000000">CandidateDetailsComponent</text>
</g>
<!-- CandidateModule -->
<g id="node3" class="node">
<title>CandidateModule</title>
<polygon fill="#8dd3c7" stroke="#000000" points="317.3118,-187 314.3118,-191 293.3118,-191 290.3118,-187 200.6882,-187 200.6882,-151 317.3118,-151 317.3118,-187"/>
<text text-anchor="middle" x="259" y="-164.8" font-family="Times,serif" font-size="14.00" fill="#000000">CandidateModule</text>
</g>
<!-- CandidateDetailsComponent&#45;&gt;CandidateModule -->
<g id="edge1" class="edge">
<title>CandidateDetailsComponent&#45;&gt;CandidateModule</title>
<path fill="none" stroke="#000000" d="M412.375,-122.1061C412.375,-141.3391 412.375,-169 412.375,-169 412.375,-169 327.422,-169 327.422,-169"/>
<polygon fill="#000000" stroke="#000000" points="327.4221,-165.5001 317.422,-169 327.422,-172.5001 327.4221,-165.5001"/>
</g>
<!-- CandidatesListComponent -->
<g id="node2" class="node">
<title>CandidatesListComponent</title>
<polygon fill="#ffffb3" stroke="#000000" points="341.8173,-122 176.1827,-122 176.1827,-86 341.8173,-86 341.8173,-122"/>
<text text-anchor="middle" x="259" y="-99.8" font-family="Times,serif" font-size="14.00" fill="#000000">CandidatesListComponent</text>
</g>
<!-- CandidatesListComponent&#45;&gt;CandidateModule -->
<g id="edge2" class="edge">
<title>CandidatesListComponent&#45;&gt;CandidateModule</title>
<path fill="none" stroke="#000000" d="M259,-122.1061C259,-122.1061 259,-140.991 259,-140.991"/>
<polygon fill="#000000" stroke="#000000" points="255.5001,-140.9909 259,-150.991 262.5001,-140.991 255.5001,-140.9909"/>
</g>
<!-- CandidateDetailsComponent  -->
<g id="node5" class="node">
<title>CandidateDetailsComponent </title>
<polygon fill="#fb8072" stroke="#000000" points="464.7464,-252 283.2536,-252 283.2536,-216 464.7464,-216 464.7464,-252"/>
<text text-anchor="middle" x="374" y="-229.8" font-family="Times,serif" font-size="14.00" fill="#000000">CandidateDetailsComponent </text>
</g>
<!-- CandidateModule&#45;&gt;CandidateDetailsComponent  -->
<g id="edge4" class="edge">
<title>CandidateModule&#45;&gt;CandidateDetailsComponent </title>
<path fill="none" stroke="#000000" stroke-dasharray="5,2" d="M300.2663,-187.1061C300.2663,-187.1061 300.2663,-205.991 300.2663,-205.991"/>
<polygon fill="#000000" stroke="#000000" points="296.7664,-205.9909 300.2663,-215.991 303.7664,-205.991 296.7664,-205.9909"/>
</g>
<!-- CandidatesListComponent  -->
<g id="node6" class="node">
<title>CandidatesListComponent </title>
<polygon fill="#fb8072" stroke="#000000" points="265.3171,-252 96.6829,-252 96.6829,-216 265.3171,-216 265.3171,-252"/>
<text text-anchor="middle" x="181" y="-229.8" font-family="Times,serif" font-size="14.00" fill="#000000">CandidatesListComponent </text>
</g>
<!-- CandidateModule&#45;&gt;CandidatesListComponent  -->
<g id="edge5" class="edge">
<title>CandidateModule&#45;&gt;CandidatesListComponent </title>
<path fill="none" stroke="#000000" stroke-dasharray="5,2" d="M233.1264,-187.1061C233.1264,-187.1061 233.1264,-205.991 233.1264,-205.991"/>
<polygon fill="#000000" stroke="#000000" points="229.6265,-205.9909 233.1264,-215.991 236.6265,-205.991 229.6265,-205.9909"/>
</g>
<!-- AppRoutingModule -->
<g id="node4" class="node">
<title>AppRoutingModule</title>
<polygon fill="#8dd3c7" stroke="#000000" points="152.2744,-122 149.2744,-126 128.2744,-126 125.2744,-122 23.7256,-122 23.7256,-86 152.2744,-86 152.2744,-122"/>
<text text-anchor="middle" x="88" y="-99.8" font-family="Times,serif" font-size="14.00" fill="#000000">AppRoutingModule</text>
</g>
<!-- AppRoutingModule&#45;&gt;CandidateModule -->
<g id="edge3" class="edge">
<title>AppRoutingModule&#45;&gt;CandidateModule</title>
<path fill="none" stroke="#000000" d="M124.4893,-122.1061C124.4893,-141.3391 124.4893,-169 124.4893,-169 124.4893,-169 190.784,-169 190.784,-169"/>
<polygon fill="#000000" stroke="#000000" points="190.784,-172.5001 200.784,-169 190.7839,-165.5001 190.784,-172.5001"/>
</g>
</g>
</svg>
